<?xml version="1.0" standalone="no"?>
<!DOCTYPE svg PUBLIC "-//W3C//DTD SVG 20010904//EN"
 "http://www.w3.org/TR/2001/REC-SVG-20010904/DTD/svg10.dtd">
<svg version="1.0" xmlns="http://www.w3.org/2000/svg"
 width="844.000000pt" height="844.000000pt" viewBox="0 0 844.000000 844.000000"
 preserveAspectRatio="xMidYMid meet">
<metadata>
Created by potrace 1.16, written by Peter Selinger 2001-2019
</metadata>
<g transform="translate(0.000000,844.000000) scale(0.100000,-0.100000)"
fill="#000000" stroke="none">
<path d="M3480 6710 l0 -40 -260 0 -260 0 0 -35 0 -35 -110 0 -110 0 0 -35 0
-35 -75 0 -75 0 0 -40 0 -40 -75 0 -75 0 0 -35 0 -35 -75 0 -75 0 0 -40 c0
-39 -1 -40 -35 -40 -33 0 -35 -2 -35 -35 0 -34 -1 -35 -40 -35 l-40 0 0 -40
c0 -39 -1 -40 -35 -40 l-35 0 0 -110 0 -110 -35 0 -35 0 0 -75 0 -75 -40 0
-40 0 0 -110 0 -110 -35 0 -35 0 0 -75 0 -75 -40 0 -40 0 0 -110 0 -110 -35 0
-35 0 0 -75 0 -75 -35 0 -35 0 0 -110 0 -110 -40 0 -40 0 0 -115 0 -115 -35 0
-35 0 0 -70 0 -70 -40 0 -40 0 0 -115 0 -115 -35 0 -35 0 0 -110 0 -110 -40 0
-40 0 0 -1000 0 -1000 40 0 40 0 0 -75 0 -75 35 0 c34 0 35 -1 35 -40 l0 -40
75 0 75 0 0 -35 0 -35 445 0 445 0 0 35 0 35 75 0 75 0 0 40 c0 39 1 40 35 40
l35 0 0 75 0 75 40 0 40 0 0 145 0 145 1485 0 1485 0 0 -145 0 -145 35 0 35 0
0 -75 0 -75 40 0 40 0 0 -40 0 -40 70 0 70 0 0 -35 0 -35 450 0 450 0 0 35 0
35 70 0 70 0 0 40 0 40 40 0 40 0 0 75 0 75 35 0 35 0 0 1000 0 1000 -35 0
-35 0 0 110 0 110 -40 0 -40 0 0 115 0 115 -35 0 -35 0 0 70 0 70 -35 0 -35 0
0 115 0 115 -40 0 -40 0 0 75 0 75 -35 0 -35 0 0 110 0 110 -40 0 -40 0 0 75
0 75 -35 0 -35 0 0 110 0 110 -40 0 -40 0 0 75 0 75 -35 0 -35 0 0 110 0 110
-35 0 -35 0 0 75 0 75 -40 0 -40 0 0 75 0 75 -35 0 c-33 0 -35 2 -35 35 0 34
-1 35 -40 35 l-40 0 0 40 c0 39 -1 40 -35 40 -33 0 -35 2 -35 35 l0 35 -75 0
-75 0 0 40 0 40 -110 0 -110 0 0 35 0 35 -110 0 -110 0 0 35 0 35 -260 0 -260
0 0 40 0 40 -745 0 -745 0 0 -40z m1490 -295 l0 -35 220 0 220 0 0 -40 0 -40
110 0 110 0 0 -35 0 -35 115 0 115 0 0 -40 c0 -39 1 -40 35 -40 33 0 35 -2 35
-35 0 -33 2 -35 35 -35 33 0 35 -2 35 -35 0 -34 1 -35 40 -35 l40 0 0 -75 0
-75 35 0 35 0 0 -75 0 -75 40 0 40 0 0 -110 0 -110 35 0 35 0 0 -75 0 -75 40
0 40 0 0 -115 0 -115 35 0 35 0 0 -110 0 -110 35 0 35 0 0 -110 0 -110 -35 0
c-34 0 -35 -1 -35 -40 l0 -40 -75 0 -75 0 0 -35 0 -35 -2080 0 -2080 0 0 35 0
35 -70 0 -70 0 0 40 0 40 -40 0 -40 0 0 150 0 150 40 0 40 0 0 70 0 70 35 0
35 0 0 115 0 115 35 0 35 0 0 110 0 110 40 0 40 0 0 75 0 75 35 0 35 0 0 75 0
75 40 0 40 0 0 75 0 75 35 0 c33 0 35 2 35 35 0 34 1 35 40 35 39 0 40 1 40
35 0 33 2 35 35 35 34 0 35 1 35 40 l0 40 110 0 110 0 0 35 0 35 115 0 115 0
0 40 0 40 220 0 220 0 0 35 0 35 745 0 745 0 0 -35z m-2080 -2525 l0 -40 75 0
75 0 0 -35 c0 -33 2 -35 35 -35 l35 0 0 -75 0 -75 35 0 35 0 0 -150 0 -150
-35 0 -35 0 0 -75 0 -75 -35 0 c-33 0 -35 -2 -35 -35 l0 -35 -75 0 -75 0 0
-35 0 -35 -185 0 -185 0 0 35 0 35 -75 0 -75 0 0 35 0 35 -75 0 -75 0 0 40 0
40 -75 0 -75 0 0 35 c0 33 -2 35 -35 35 -34 0 -35 1 -35 40 l0 40 -40 0 c-39
0 -40 1 -40 35 0 33 -2 35 -35 35 l-35 0 0 150 0 150 35 0 c33 0 35 2 35 35 0
34 1 35 40 35 l40 0 0 40 0 40 445 0 445 0 0 -40z m3560 0 c0 -39 1 -40 35
-40 33 0 35 -2 35 -35 0 -34 1 -35 40 -35 l40 0 0 -150 0 -150 -40 0 c-39 0
-40 -1 -40 -35 0 -33 -2 -35 -35 -35 -34 0 -35 -1 -35 -40 0 -39 -1 -40 -35
-40 -33 0 -35 -2 -35 -35 l0 -35 -75 0 -75 0 0 -40 0 -40 -75 0 -75 0 0 -35 0
-35 -75 0 -75 0 0 -35 0 -35 -185 0 -185 0 0 35 0 35 -75 0 -75 0 0 35 c0 33
-2 35 -35 35 l-35 0 0 75 0 75 -40 0 -40 0 0 150 0 150 40 0 40 0 0 75 0 75
35 0 c33 0 35 2 35 35 l0 35 75 0 75 0 0 40 0 40 445 0 445 0 0 -40z"/>
<path d="M1030 5075 l0 -35 -75 0 -75 0 0 -35 c0 -33 -2 -35 -35 -35 -34 0
-35 -1 -35 -40 l0 -40 -40 0 c-39 0 -40 -1 -40 -35 0 -33 -2 -35 -35 -35 l-35
0 0 -185 0 -185 35 0 35 0 0 -75 0 -75 75 0 75 0 0 -40 0 -40 75 0 75 0 0 40
0 40 40 0 40 0 0 75 0 75 35 0 35 0 0 110 0 110 35 0 35 0 0 110 0 110 40 0
40 0 0 75 0 75 35 0 c33 0 35 2 35 35 l0 35 -185 0 -185 0 0 -35z"/>
<path d="M7040 5075 c0 -34 1 -35 40 -35 l40 0 0 -110 0 -110 35 0 35 0 0 -75
0 -75 40 0 40 0 0 -110 0 -110 35 0 35 0 0 -75 0 -75 40 0 40 0 0 -40 0 -40
70 0 70 0 0 40 0 40 75 0 75 0 0 75 0 75 40 0 40 0 0 185 0 185 -40 0 c-39 0
-40 1 -40 35 0 33 -2 35 -35 35 -34 0 -35 1 -35 40 l0 40 -40 0 c-39 0 -40 1
-40 35 l0 35 -70 0 -70 0 0 35 0 35 -190 0 -190 0 0 -35z"/>
</g>
</svg>
